# xmcd
#
# Track frame offsets:
#	182
#	26070
#	40607
#	62270
#	77457
#	89770
#	100532
#	114182
#	129707
#	143132
#	162442
#
# Disc length: 2378 seconds
#
# Revision: 0
# Processed by: cddbd v1.4PL0 Copyright (c) Steve Scherf et al.
# Submitted via: EasyCDDAExtractor 4.5.0.1
#
DISCID=8109480b
DTITLE=P.I. Tchaikovsky - Tchaikovsky - Mazeppa - Kirov Opera and Orchestra - Ge
DTITLE=rgiev
DYEAR=1900
DGENRE=
TTITLE0=No. 15 The Battle Of Poltava
TTITLE1=In Bloody Battle, On The Field Of Honour
TTITLE2=Here Days Passed By In Happy Succession (Andrey)
TTITLE3=I Hear In The Distance The Clatter Of Horses' Hooves
TTITLE4=You Destroyer Of Sacred Innocence
TTITLE5=Unhappy Man! God Knows
TTITLE6=O Hush, Hush, Hush, My Dear
TTITLE7=I Remember A Field...Noise And Celebration
TTITLE8=The Old Man'S Gone, How My Heart Beats
TTITLE9=Wake Up, I Am Dying
TTITLE10=Sleep, My Baby, My Pretty
EXTD=Disc 3 of 3
EXTT0=
EXTT1=
EXTT2=
EXTT3=
EXTT4=
EXTT5=
EXTT6=
EXTT7=
EXTT8=
EXTT9=
EXTT10=
PLAYORDER=
